<?xml version="1.0" encoding="utf-8"?>
<!-- Generator: Adobe Illustrator 19.1.0, SVG Export Plug-In . SVG Version: 6.00 Build 0)  -->
<svg version="1.1" id="Layer_1" xmlns="http://www.w3.org/2000/svg" xmlns:xlink="http://www.w3.org/1999/xlink" x="0px" y="0px"
	 viewBox="-131.4 536 62.7 63.5" style="enable-background:new -131.4 536 62.7 63.5;" xml:space="preserve">
<style type="text/css">
	.st0{fill:#FFFFFF;}
</style>
<g>
	<g>
		<path class="st0" d="M-83.7,599.5h-32.7c-8.3,0-15-6.7-15-15V551c0-8.3,6.7-15,15-15h32.7c8.3,0,15,6.7,15,15v33.5
			C-68.7,592.8-75.5,599.5-83.7,599.5z M-116.4,542c-5,0-9,4-9,9v33.5c0,5,4,9,9,9h32.7c5,0,9-4,9-9V551c0-5-4-9-9-9H-116.4z"/>
		<path class="st0" d="M-100.1,585.2c-9.5,0-17.2-7.7-17.2-17.2s7.7-17.2,17.2-17.2s17.2,7.7,17.2,17.2S-90.7,585.2-100.1,585.2z
			 M-100.1,556.9c-6.2,0-11.2,5-11.2,11.2c0,6.2,5,11.2,11.2,11.2s11.2-5,11.2-11.2C-88.9,561.9-94,556.9-100.1,556.9z"/>
		<circle class="st0" cx="-83.1" cy="550.7" r="3.8"/>
	</g>
</g>
</svg>
